<?xml version="1.0" encoding="utf-8"?>
<!-- Generator: Adobe Illustrator 26.2.1, SVG Export Plug-In . SVG Version: 6.00 Build 0)  -->
<svg version="1.1" id="Capa_1" xmlns="http://www.w3.org/2000/svg" xmlns:xlink="http://www.w3.org/1999/xlink" x="0px" y="0px"
	 viewBox="0 0 17.3 17.6" style="enable-background:new 0 0 17.3 17.6;" xml:space="preserve">
<style type="text/css">
	.st0{fill:#6348C9;}
	.st1{fill:#FFFFFF;}
</style>
<circle class="st0" cx="8.6" cy="8.8" r="8.6"/>
<path class="st1" d="M2.8,4.2c0-0.2,0.1-0.4,0.4-0.4h1.1c0.1,0,0.3,0.1,0.4,0.3l0.3,1.1h8.3c0.2,0,0.4,0.1,0.4,0.4v0.1l-1.1,5.7
	c0,0.1-0.2,0.3-0.4,0.3H5.6c-0.1,0-0.3-0.1-0.4-0.3L4.2,5.7L3.9,4.5H3.1C2.9,4.5,2.8,4.4,2.8,4.2z M5,6l0.9,5h5.9l0.9-5H5z
	 M6.4,11.7c-0.8,0-1.4,0.6-1.4,1.4c0,0.8,0.6,1.4,1.4,1.4s1.4-0.6,1.4-1.4C7.8,12.3,7.1,11.7,6.4,11.7z M11.4,11.7
	c-0.8,0-1.4,0.6-1.4,1.4c0,0.8,0.6,1.4,1.4,1.4s1.4-0.6,1.4-1.4C12.8,12.3,12.2,11.7,11.4,11.7z M6.4,12.4c0.4,0,0.7,0.3,0.7,0.7
	c0,0.4-0.3,0.7-0.7,0.7s-0.7-0.3-0.7-0.7C5.6,12.7,5.9,12.4,6.4,12.4z M11.4,12.4c0.4,0,0.7,0.3,0.7,0.7c0,0.4-0.3,0.7-0.7,0.7
	s-0.7-0.3-0.7-0.7C10.7,12.7,10.9,12.4,11.4,12.4z"/>
</svg>
